<svg width="22.000000" height="22.000000" viewBox="0 0 22 22" fill="none" xmlns="http://www.w3.org/2000/svg" xmlns:xlink="http://www.w3.org/1999/xlink">
	<desc>
			Created with Pixso.
	</desc>
	<defs/>
	<path id="free-icon-phone-8500068 1 (Traced)" d="M4.51 0.02C2.48 0.35 0.74 1.86 0.18 3.8C-0.04 4.56 -0.06 5.37 0.1 6.8C0.8 13.15 5 18.59 10.99 20.89C12.6 21.5 14.24 21.85 16.1 21.97C17.35 22.05 18.1 21.93 19.02 21.48C20.62 20.71 21.73 19.17 21.97 17.43C22.06 16.72 21.92 15.71 21.65 15.16C21.4 14.64 20.87 14.18 20.35 14.02C20.09 13.93 15.21 13.18 14.94 13.18C14.42 13.18 13.85 13.43 13.42 13.86C13.27 14 13.11 14.17 13.06 14.24L12.98 14.37L12.48 14.12C10.53 13.14 9.02 11.64 8.05 9.73C7.9 9.43 7.76 9.14 7.74 9.08C7.72 9.01 7.78 8.93 8.06 8.65C8.54 8.17 8.77 7.66 8.77 7.05C8.77 6.92 8.57 5.65 8.33 4.22C7.91 1.73 7.89 1.6 7.74 1.3C7.44 0.69 6.91 0.29 6.18 0.11C5.76 0.01 4.9 -0.04 4.51 0.02ZM5.75 1.16C6.24 1.24 6.57 1.45 6.74 1.78C6.82 1.94 7.63 6.72 7.63 7.06C7.63 7.43 7.47 7.71 7.1 8C6.65 8.36 6.54 8.57 6.54 9.04C6.54 9.25 6.57 9.37 6.7 9.65C7.68 11.83 9.41 13.7 11.54 14.89C12.24 15.29 12.68 15.46 12.96 15.47C13.42 15.48 13.64 15.33 14.13 14.72C14.32 14.48 14.66 14.31 14.96 14.31C15.29 14.31 19.85 15.04 20.05 15.12C20.28 15.22 20.55 15.48 20.67 15.71C20.84 16.04 20.88 16.35 20.86 16.94C20.83 17.6 20.71 18.07 20.39 18.71C20.04 19.42 19.4 20.04 18.61 20.43C17.89 20.79 17.32 20.9 16.33 20.86C11.5 20.67 6.92 18.16 4.06 14.15C2.5 11.96 1.52 9.39 1.21 6.69C1.13 5.99 1.1 4.92 1.16 4.59C1.44 2.92 2.75 1.54 4.38 1.19C4.74 1.11 5.36 1.1 5.75 1.16ZM12.9 2.07C12.57 2.21 12.5 2.72 12.76 2.98C12.85 3.08 12.93 3.1 13.49 3.15C13.84 3.19 14.28 3.25 14.47 3.3C16.93 3.91 18.69 6.02 18.84 8.57C18.87 8.9 18.9 9.06 18.95 9.16C19.16 9.5 19.74 9.48 19.91 9.12C19.98 8.95 19.97 8.28 19.87 7.7C19.63 6.3 18.99 5.08 17.95 4.04C16.95 3.04 15.85 2.45 14.48 2.16C14.03 2.06 13.03 2.01 12.9 2.07ZM11.91 5.55C11.69 5.67 11.59 6.03 11.71 6.26C11.83 6.49 11.93 6.54 12.34 6.59C12.9 6.64 13.19 6.73 13.66 6.96C14.63 7.43 15.33 8.48 15.4 9.56C15.43 10.15 15.61 10.36 16.03 10.32C16.27 10.3 16.43 10.18 16.5 9.96C16.61 9.65 16.42 8.64 16.16 8.05C15.69 7.02 14.74 6.12 13.71 5.75C13.03 5.5 12.17 5.41 11.91 5.55Z" fill="#000000" fill-opacity="1.000000" fill-rule="evenodd"/>
</svg>
