<svg width="45.000000" height="157.000000" viewBox="0 0 45 157" fill="none" xmlns="http://www.w3.org/2000/svg" xmlns:xlink="http://www.w3.org/1999/xlink">
	<desc>
			Created with Pixso.
	</desc>
	<defs/>
	<line id="Line 2" x1="22.500000" y1="99.000000" x2="22.500000" y2="119.000000" stroke="#728095" stroke-opacity="1.000000" stroke-width="1.000000"/>
	<circle id="Ellipse 1" cx="22.500000" cy="134.500000" r="22.000000" stroke="#728095" stroke-opacity="1.000000" stroke-width="1.000000"/>
	<path id="free-icon-computer-mouse-7991072 1 (Traced)" d="M21.36 125.08C18.66 125.57 16.54 127.75 16.08 130.52C16 130.99 16 131.26 16 134.5C16 137.73 16 138 16.08 138.47C16.53 141.17 18.51 143.27 21.16 143.87C21.78 144.02 22.89 144.04 23.56 143.92C26.32 143.44 28.44 141.27 28.91 138.47C28.99 138 29 137.73 29 134.5C29 131.26 28.99 130.99 28.91 130.52C28.44 127.73 26.32 125.56 23.59 125.08C22.94 124.97 22 124.97 21.36 125.08ZM23.43 126.98C24.29 127.17 25.03 127.56 25.67 128.18C26.12 128.61 26.39 128.99 26.66 129.57C26.92 130.11 27.05 130.57 27.12 131.15C27.17 131.64 27.17 137.35 27.12 137.84C27.03 138.6 26.76 139.39 26.35 140.02C26.14 140.34 25.65 140.87 25.33 141.12C23.94 142.2 22.1 142.41 20.55 141.66C20.02 141.4 19.71 141.19 19.32 140.81C18.77 140.28 18.44 139.78 18.16 139.06C17.84 138.24 17.85 138.31 17.85 134.5C17.85 130.68 17.84 130.75 18.16 129.93C18.52 129.02 19.15 128.2 19.89 127.7C20.48 127.3 21.27 127 21.96 126.91C22.33 126.86 23.03 126.9 23.43 126.98ZM22.15 128.86C21.95 128.94 21.77 129.12 21.66 129.33C21.58 129.48 21.58 129.61 21.58 131.15C21.58 132.54 21.59 132.83 21.65 132.97C21.95 133.72 23.04 133.72 23.34 132.97C23.4 132.83 23.41 132.54 23.41 131.15C23.41 129.61 23.41 129.48 23.33 129.33C23.1 128.87 22.58 128.67 22.15 128.86Z" fill="#728095" fill-opacity="1.000000" fill-rule="evenodd"/>
	<path id="листайте вниз" d="M18.46 52.51C18.46 52 18.32 51.59 18.04 51.28C17.76 50.96 17.37 50.76 16.89 50.7L16.75 51.36C17.04 51.41 17.27 51.54 17.43 51.74Q17.46 51.79 17.5 51.85Q17.67 52.13 17.67 52.51C17.67 52.82 17.59 53.07 17.43 53.28C17.27 53.49 17.04 53.62 16.75 53.66L16.85 54.32C17.35 54.26 17.74 54.07 18.03 53.76C18.31 53.44 18.46 53.02 18.46 52.51ZM25.06 73.59Q25.45 72.89 25.45 71.97Q25.45 71.02 25.01 70.36Q24.83 70.08 24.57 69.85L23.88 70.6C24.3 70.93 24.51 71.39 24.51 71.97C24.51 72.54 24.31 73 23.91 73.34C23.51 73.68 23.02 73.84 22.45 73.84Q21.88 73.84 21.42 73.61Q21.2 73.5 21 73.34Q20.77 73.15 20.63 72.9Q20.4 72.51 20.4 71.98C20.4 71.72 20.46 71.47 20.58 71.23C20.7 70.98 20.86 70.8 21.05 70.68L20.39 69.86C20.09 70.08 19.87 70.39 19.7 70.78C19.54 71.18 19.45 71.58 19.45 72Q19.45 72.87 19.82 73.54Q20.01 73.89 20.29 74.18C20.85 74.75 21.57 75.03 22.45 75.03Q23.37 75.03 24.05 74.63Q24.36 74.44 24.63 74.17Q24.88 73.9 25.06 73.59ZM25.35 61.15C25.41 60.92 25.44 60.68 25.44 60.44Q25.44 59.67 25.08 59.13Q24.86 58.78 24.48 58.54L24.48 58.5C24.75 58.5 25.03 58.47 25.3 58.4L25.3 57.38C25.04 57.44 24.67 57.47 24.17 57.47L21.69 57.47Q20.93 57.47 20.4 57.81Q20.23 57.92 20.08 58.07C19.66 58.47 19.45 59.06 19.45 59.84C19.45 60.8 19.74 61.58 20.31 62.17L21.03 61.57C20.59 61.13 20.37 60.59 20.37 59.95C20.37 59.52 20.47 59.18 20.69 58.93C20.9 58.68 21.21 58.55 21.61 58.55L21.77 58.55C21.77 58.99 21.78 59.38 21.81 59.71C21.83 60.04 21.88 60.39 21.96 60.77C22.03 61.14 22.14 61.44 22.27 61.68C22.4 61.92 22.59 62.12 22.84 62.28C23.08 62.43 23.36 62.51 23.69 62.51C24 62.51 24.28 62.44 24.52 62.32C24.75 62.19 24.93 62.02 25.06 61.81C25.19 61.6 25.28 61.38 25.35 61.15ZM24.63 41.11C25.18 40.55 25.45 39.83 25.45 38.95C25.45 37.92 25.07 37.11 24.29 36.5L23.65 37.3C24.23 37.69 24.52 38.24 24.52 38.95C24.52 39.45 24.35 39.88 24.03 40.24C23.69 40.6 23.28 40.79 22.79 40.8L22.79 36.29C22.7 36.28 22.57 36.28 22.41 36.28C21.5 36.28 20.79 36.53 20.26 37.02C19.72 37.51 19.45 38.17 19.45 39.01Q19.45 39.75 19.75 40.35Q19.95 40.77 20.31 41.11C20.87 41.67 21.59 41.95 22.47 41.95C23.35 41.95 24.07 41.67 24.63 41.11ZM24.91 8.68Q25.47 7.92 25.47 6.75C25.47 6.07 25.31 5.51 25.01 5.07C24.7 4.63 24.27 4.41 23.73 4.41C23.36 4.41 23.05 4.53 22.81 4.78C22.57 5.02 22.41 5.34 22.33 5.74L22.31 5.74C22.24 5.41 22.08 5.13 21.84 4.91C21.6 4.69 21.32 4.58 21 4.58C20.52 4.58 20.15 4.78 19.87 5.19Q19.45 5.79 19.45 6.76C19.45 7.24 19.54 7.68 19.72 8.08C19.89 8.47 20.14 8.77 20.45 8.98L21.06 8.26C20.85 8.11 20.67 7.91 20.55 7.65C20.41 7.39 20.34 7.13 20.34 6.86C20.34 6.1 20.59 5.72 21.09 5.72Q21.34 5.72 21.52 5.83Q21.95 6.11 21.95 7.06L21.95 7.47L22.79 7.47L22.79 7.05Q22.79 5.94 23.28 5.65Q23.45 5.55 23.68 5.55C24.27 5.55 24.57 5.97 24.57 6.81Q24.57 7.01 24.53 7.21Q24.47 7.5 24.33 7.77C24.17 8.07 23.97 8.29 23.74 8.44L24.4 9.21Q24.69 8.98 24.91 8.68ZM25.29 90.85Q25.37 90.54 25.37 90.12Q25.37 89.5 25.08 89.08Q24.87 88.76 24.49 88.56Q23.62 88.07 21.89 88.07L20.53 88.07L20.53 85.92L25.3 85.92L25.3 84.79L19.61 84.79L19.61 89.16L21.59 89.16Q23.14 89.16 23.77 89.46Q24.15 89.64 24.3 89.94Q24.4 90.13 24.4 90.37Q24.4 90.58 24.34 90.76L25.29 90.85ZM19.61 82.37L25.3 82.37L25.3 81.14L21.18 78.23L21.18 78.21L25.3 78.21L25.3 77.08L19.61 77.08L19.61 78.32L23.71 81.23L23.71 81.24L19.61 81.24L19.61 82.37ZM20.53 66.84L25.3 66.84L25.3 65.71L20.53 65.71L20.53 63.78L19.61 63.78L19.61 68.77L20.53 68.77L20.53 66.84ZM19.61 55.1L25.3 55.1L25.3 53.87L21.18 50.96L21.18 50.94L25.3 50.94L25.3 49.81L19.61 49.81L19.61 51.05L23.71 53.96L23.71 53.98L19.61 53.98L19.61 55.1ZM20.53 46.19L25.3 46.19L25.3 45.07L20.53 45.07L20.53 43.13L19.61 43.13L19.61 48.13L20.53 48.13L20.53 46.19ZM19.61 30.74L25.3 30.74L25.3 27.9C25.3 27.25 25.16 26.73 24.88 26.35C24.59 25.96 24.2 25.76 23.7 25.76C23.31 25.76 22.99 25.88 22.75 26.11C22.51 26.34 22.36 26.64 22.31 27.01L22.29 27.01C22.22 26.71 22.08 26.48 21.87 26.3C21.64 26.12 21.38 26.03 21.09 26.03Q20.75 26.03 20.49 26.15C20.31 26.22 20.17 26.32 20.07 26.45C19.95 26.57 19.87 26.71 19.8 26.89C19.73 27.06 19.68 27.23 19.66 27.41C19.62 27.57 19.61 27.75 19.61 27.95L19.61 30.74ZM19.61 23.71L25.3 23.71L25.3 22.58L22.79 22.58L22.79 19.76L25.3 19.76L25.3 18.64L19.61 18.64L19.61 19.76L21.87 19.76L21.87 22.58L19.61 22.58L19.61 23.71ZM19.61 16.21L25.3 16.21L25.3 14.98L21.18 12.07L21.18 12.05L25.3 12.05L25.3 10.92L19.61 10.92L19.61 12.16L23.71 15.07L23.71 15.08L19.61 15.08L19.61 16.21ZM21.95 37.42L21.95 40.8C21.5 40.76 21.12 40.57 20.81 40.24C20.5 39.9 20.34 39.49 20.34 39.01Q20.34 38.41 20.63 38.03Q20.71 37.93 20.8 37.85C21.09 37.58 21.48 37.43 21.95 37.42ZM21.95 28.04L21.95 29.61L20.49 29.61L20.49 28.16C20.49 27.47 20.73 27.13 21.22 27.13C21.47 27.13 21.65 27.22 21.77 27.39Q21.77 27.4 21.77 27.4Q21.95 27.66 21.95 28.04ZM24.1 58.99C24.4 59.28 24.55 59.68 24.55 60.19C24.55 60.52 24.49 60.8 24.35 61.02C24.21 61.24 23.98 61.36 23.67 61.36Q23.5 61.36 23.36 61.3Q22.59 60.97 22.59 58.82L22.59 58.55L22.89 58.55C23.38 58.55 23.79 58.7 24.1 58.99ZM24.4 28.08L24.4 29.61L22.8 29.61L22.8 28.02C22.8 27.28 23.07 26.91 23.61 26.91C24.13 26.91 24.4 27.3 24.4 28.08Z" fill="#728095" fill-opacity="1.000000" fill-rule="evenodd"/>
</svg>
