<svg width="185.000000" height="46.000000" viewBox="0 0 185 46" fill="none" xmlns="http://www.w3.org/2000/svg" xmlns:xlink="http://www.w3.org/1999/xlink">
	<desc>
			Created with Pixso.
	</desc>
	<defs>
		<clipPath id="clip0_1010">
			<rect id="Лого светлое 1" width="185.000000" height="46.000000" fill="white" fill-opacity="0"/>
		</clipPath>
	</defs>
	<rect id="Лого светлое 1" width="185.000000" height="46.000000" fill="#FFFFFF" fill-opacity="0"/>
	<g clip-path="url(#clip0_1010)">
		<path id="Vector" d="M183.3 36.32L183.06 35.5L182.82 36.31L182.67 36.79L183.48 36.79L183.3 36.32ZM184.04 38.4L183.73 37.56L182.36 37.56L182.05 38.4L181.09 38.4L182.69 34.29L183.43 34.29L185.02 38.4L184.04 38.4ZM177.63 37.15C177.64 37.09 177.64 37.03 177.63 36.98C177.61 36.92 177.58 36.87 177.54 36.83C177.49 36.79 177.43 36.75 177.37 36.73C177.29 36.7 177.21 36.69 177.13 36.69L176.39 36.69L176.39 37.6L177.13 37.6C177.2 37.61 177.28 37.6 177.35 37.58C177.42 37.55 177.48 37.52 177.54 37.47C177.61 37.38 177.64 37.26 177.63 37.15ZM177.54 35.51C177.54 35.46 177.53 35.41 177.51 35.36C177.49 35.31 177.46 35.27 177.42 35.23C177.31 35.14 177.17 35.1 177.02 35.12L176.33 35.12L176.33 35.94L177.02 35.94C177.1 35.95 177.17 35.94 177.24 35.92C177.31 35.89 177.37 35.86 177.42 35.81C177.5 35.72 177.54 35.61 177.54 35.5L177.54 35.51ZM178.57 37.15C178.57 37.32 178.53 37.49 178.46 37.65C178.4 37.8 178.3 37.93 178.18 38.03C178.06 38.14 177.93 38.22 177.78 38.28C177.62 38.34 177.45 38.37 177.28 38.37L175.41 38.37L175.41 34.29L177.14 34.29C177.34 34.29 177.53 34.32 177.72 34.37C177.88 34.43 178.02 34.51 178.15 34.61C178.26 34.72 178.35 34.84 178.41 34.98C178.47 35.13 178.5 35.29 178.5 35.45C178.5 35.61 178.46 35.76 178.38 35.9C178.3 36.06 178.16 36.19 177.99 36.25C178.08 36.28 178.16 36.33 178.23 36.4C178.3 36.47 178.37 36.54 178.42 36.63C178.46 36.71 178.5 36.8 178.52 36.89C178.55 36.97 178.56 37.06 178.57 37.15ZM171.45 35.07L171.45 38.37L170.56 38.37L170.56 35.1L169.44 35.1L169.44 34.29L172.59 34.29L172.59 35.1L171.45 35.07ZM166.86 37.4C166.77 37.7 166.57 37.97 166.31 38.14C166.02 38.33 165.68 38.43 165.34 38.42C165.1 38.42 164.86 38.38 164.64 38.3C164.45 38.23 164.28 38.12 164.14 37.97C164.01 37.82 163.91 37.65 163.85 37.46C163.78 37.25 163.75 37.03 163.75 36.81L163.75 35.85C163.75 35.64 163.78 35.43 163.85 35.24C163.91 35.05 164.01 34.88 164.14 34.73C164.28 34.58 164.45 34.46 164.64 34.37C164.86 34.29 165.1 34.24 165.34 34.25C165.68 34.24 166.03 34.33 166.31 34.53C166.57 34.71 166.76 34.97 166.86 35.27L166 35.59C165.97 35.44 165.89 35.32 165.78 35.23C165.65 35.12 165.49 35.07 165.33 35.08C165.23 35.07 165.12 35.1 165.03 35.14C164.95 35.17 164.88 35.22 164.82 35.29C164.77 35.35 164.73 35.42 164.71 35.5C164.68 35.58 164.66 35.67 164.66 35.75L164.66 36.86C164.66 36.95 164.68 37.04 164.71 37.12C164.73 37.2 164.77 37.28 164.82 37.34C164.88 37.41 164.95 37.46 165.03 37.5C165.13 37.54 165.23 37.56 165.33 37.55C165.49 37.56 165.65 37.51 165.78 37.41C165.89 37.31 165.97 37.18 166 37.04L166.86 37.4ZM160.12 37.15C160.12 37.09 160.11 37.03 160.09 36.98C160.07 36.93 160.04 36.88 160 36.84C159.94 36.79 159.88 36.75 159.81 36.72C159.74 36.7 159.66 36.69 159.59 36.7L158.78 36.7L158.78 37.61L159.59 37.61C159.66 37.62 159.74 37.61 159.81 37.58C159.88 37.56 159.94 37.52 160 37.47C160.04 37.42 160.07 37.37 160.09 37.32C160.11 37.26 160.12 37.21 160.12 37.15ZM161.04 37.15C161.05 37.32 161.02 37.5 160.96 37.67C160.89 37.84 160.79 37.99 160.66 38.11C160.37 38.36 159.99 38.48 159.6 38.46L157.88 38.46L157.88 34.29L158.79 34.29L158.79 35.87L159.62 35.87C159.83 35.86 160.04 35.9 160.24 35.97C160.41 36.03 160.56 36.12 160.69 36.24C160.8 36.35 160.89 36.48 160.95 36.63C161.01 36.78 161.04 36.93 161.04 37.09L161.04 37.15ZM154.64 34.35L154.64 38.46L153.74 38.46L153.74 35.11L152.77 35.11L152.77 36.09C152.77 36.39 152.75 36.69 152.72 36.99C152.69 37.25 152.62 37.5 152.52 37.73C152.42 37.94 152.27 38.12 152.08 38.25C151.84 38.4 151.57 38.47 151.3 38.47L151.17 37.73C151.32 37.7 151.47 37.64 151.59 37.54C151.69 37.45 151.77 37.34 151.81 37.21C151.86 37.06 151.89 36.9 151.91 36.74C151.91 36.57 151.91 36.36 151.91 36.13L151.91 34.29L154.64 34.35ZM145.67 38.46L145.67 34.29L148.58 34.29L148.58 35.1L146.58 35.1L146.58 35.93L148.32 35.93L148.32 36.72L146.62 36.72L146.62 37.58L148.61 37.58L148.61 38.4L145.67 38.46ZM141.71 35.16L141.71 38.46L140.8 38.46L140.8 35.1L139.68 35.1L139.68 34.29L142.83 34.29L142.83 35.1L141.71 35.16ZM133.48 38.4L133.48 34.29L134.39 34.29L134.39 36.86L135.23 35.55L136.09 34.29L136.83 34.29L136.83 38.4L135.92 38.4L135.92 35.91L135.32 36.89L134.28 38.37L133.48 38.4ZM128.85 35.11C128.75 35.1 128.64 35.12 128.55 35.17C128.47 35.2 128.4 35.25 128.34 35.32C128.29 35.38 128.25 35.45 128.22 35.53C128.2 35.61 128.18 35.7 128.18 35.78L128.18 36.89C128.18 36.98 128.19 37.07 128.22 37.15C128.25 37.23 128.29 37.31 128.34 37.37C128.4 37.43 128.47 37.49 128.55 37.52C128.65 37.56 128.75 37.59 128.85 37.58C128.94 37.59 129.04 37.58 129.13 37.54C129.22 37.51 129.3 37.45 129.36 37.38C129.48 37.25 129.54 37.07 129.54 36.89L129.54 35.78C129.54 35.69 129.53 35.61 129.5 35.53C129.47 35.45 129.42 35.37 129.36 35.31C129.3 35.25 129.22 35.19 129.14 35.16C129.06 35.12 128.97 35.11 128.88 35.11L128.85 35.11ZM128.85 34.26C129.08 34.26 129.3 34.3 129.52 34.38C129.71 34.45 129.88 34.57 130.02 34.71C130.17 34.86 130.28 35.03 130.35 35.22C130.42 35.43 130.46 35.64 130.46 35.86L130.46 36.83C130.46 37.05 130.42 37.28 130.35 37.5C130.27 37.68 130.16 37.85 130.02 38C129.88 38.14 129.71 38.25 129.52 38.32C129.3 38.4 129.08 38.43 128.85 38.43C128.61 38.44 128.37 38.4 128.15 38.31C127.96 38.22 127.8 38.1 127.65 37.96C127.52 37.8 127.42 37.63 127.37 37.44C127.3 37.24 127.26 37.03 127.26 36.83L127.26 35.86C127.26 35.65 127.3 35.45 127.37 35.25C127.42 35.06 127.52 34.89 127.65 34.75C127.79 34.59 127.96 34.47 128.15 34.39C128.39 34.3 128.64 34.25 128.89 34.26L128.85 34.26ZM123.7 35.59C123.71 35.52 123.7 35.46 123.67 35.39C123.64 35.33 123.6 35.27 123.55 35.22C123.43 35.14 123.28 35.09 123.13 35.1L122.39 35.1L122.39 36.08L123.13 36.08C123.27 36.09 123.41 36.04 123.52 35.95C123.58 35.91 123.63 35.86 123.67 35.8C123.71 35.74 123.73 35.67 123.74 35.59L123.7 35.59ZM124.62 35.59C124.62 35.77 124.58 35.94 124.51 36.11C124.44 36.26 124.33 36.4 124.21 36.51C124.07 36.63 123.92 36.72 123.75 36.78C123.58 36.85 123.39 36.88 123.2 36.88L122.43 36.88L122.43 38.36L121.53 38.36L121.53 34.29L123.22 34.29C123.42 34.29 123.62 34.32 123.81 34.38C123.98 34.44 124.13 34.53 124.27 34.64C124.39 34.76 124.49 34.9 124.56 35.06C124.63 35.24 124.66 35.42 124.66 35.62L124.62 35.59ZM117.52 35.08L117.52 38.38L116.65 38.38L116.65 35.1L115.53 35.1L115.53 34.29L118.65 34.29L118.65 35.1L117.52 35.08ZM112.93 37.38C112.83 37.68 112.64 37.94 112.38 38.12C112.09 38.31 111.75 38.41 111.4 38.39C111.16 38.4 110.92 38.36 110.7 38.28C110.51 38.2 110.34 38.09 110.2 37.95C110.07 37.8 109.98 37.62 109.92 37.44C109.85 37.23 109.82 37.01 109.82 36.79L109.82 35.82C109.82 35.62 109.85 35.41 109.92 35.21C109.98 35.03 110.08 34.86 110.2 34.71C110.34 34.56 110.51 34.44 110.7 34.35C110.92 34.27 111.16 34.22 111.4 34.23C111.75 34.21 112.09 34.31 112.38 34.51C112.64 34.69 112.83 34.95 112.93 35.25L112.07 35.56C112.03 35.42 111.96 35.3 111.84 35.21C111.72 35.1 111.56 35.05 111.39 35.06C111.29 35.05 111.19 35.07 111.1 35.12C111.02 35.15 110.95 35.2 110.89 35.27C110.84 35.33 110.79 35.4 110.77 35.48C110.74 35.56 110.73 35.64 110.72 35.73L110.72 36.84C110.72 36.93 110.74 37.02 110.77 37.1C110.79 37.18 110.84 37.26 110.89 37.32C110.95 37.39 111.02 37.44 111.1 37.47C111.19 37.51 111.29 37.53 111.39 37.53C111.56 37.54 111.72 37.49 111.84 37.38C111.96 37.29 112.04 37.16 112.07 37.02L112.93 37.38ZM101.37 35.56C101.37 35.62 101.38 35.68 101.4 35.74C101.43 35.79 101.47 35.84 101.53 35.88C101.66 35.94 101.8 35.97 101.94 35.96L102.62 35.96L102.62 35.1L101.91 35.1C101.77 35.09 101.63 35.13 101.51 35.21C101.47 35.26 101.43 35.31 101.4 35.37C101.38 35.43 101.37 35.49 101.37 35.56ZM103.52 34.29L103.52 38.4L102.62 38.4L102.62 36.74L102.2 36.74C102.13 36.73 102.06 36.73 102 36.74C101.93 36.76 101.86 36.8 101.81 36.85C101.75 36.91 101.7 36.98 101.65 37.06C101.6 37.16 101.55 37.28 101.51 37.39L101.23 38.37L100.28 38.37L100.59 37.23C100.63 37.09 100.69 36.95 100.76 36.83C100.85 36.7 100.98 36.6 101.13 36.56C101.03 36.53 100.93 36.47 100.85 36.4C100.77 36.33 100.69 36.25 100.63 36.15C100.57 36.05 100.53 35.95 100.5 35.84C100.43 35.55 100.45 35.24 100.56 34.97C100.64 34.82 100.74 34.68 100.87 34.58C101 34.47 101.14 34.39 101.31 34.34C101.47 34.29 101.64 34.26 101.82 34.26L103.52 34.29ZM93.95 38.4L93.95 34.29L94.85 34.29L94.85 36.86L95.69 35.55L96.56 34.29L97.3 34.29L97.3 38.4L96.4 38.4L96.4 35.91L95.8 36.89L94.76 38.37L93.95 38.4ZM90.3 38.4L87.33 38.4L87.33 34.29L88.25 34.29L88.25 37.58L89.59 37.58L89.59 34.29L90.49 34.29L90.49 37.59L91.02 37.59L91.02 39.37L90.28 39.37L90.3 38.4ZM82.81 35.11C82.71 35.11 82.61 35.13 82.52 35.17C82.45 35.2 82.38 35.25 82.33 35.32C82.28 35.38 82.24 35.46 82.22 35.53C82.21 35.62 82.21 35.7 82.22 35.78L82.22 36.89C82.21 36.98 82.21 37.07 82.22 37.15C82.24 37.23 82.28 37.31 82.33 37.37C82.37 37.44 82.44 37.49 82.51 37.52C82.6 37.57 82.7 37.59 82.8 37.58C82.89 37.59 82.98 37.58 83.07 37.54C83.15 37.51 83.23 37.45 83.28 37.38C83.39 37.24 83.44 37.07 83.43 36.89L83.43 35.78C83.44 35.61 83.39 35.45 83.28 35.31C83.23 35.24 83.16 35.19 83.07 35.15C82.99 35.12 82.9 35.1 82.81 35.11ZM82.81 34.26C83.04 34.26 83.28 34.3 83.49 34.38C83.68 34.46 83.84 34.57 83.97 34.72C84.1 34.86 84.2 35.04 84.26 35.22C84.32 35.43 84.35 35.64 84.34 35.86L84.34 36.83C84.35 37.05 84.31 37.28 84.24 37.5C84.17 37.68 84.07 37.85 83.94 38C83.8 38.14 83.63 38.25 83.45 38.32C83.24 38.4 83.02 38.43 82.79 38.43C82.56 38.44 82.32 38.4 82.11 38.31C81.92 38.22 81.76 38.1 81.63 37.96C81.5 37.8 81.41 37.63 81.36 37.44C81.3 37.24 81.27 37.03 81.27 36.83L81.27 36.72L80.83 36.72L80.83 38.4L79.92 38.4L79.92 34.29L80.83 34.29L80.83 35.93L81.25 35.93L81.25 35.86C81.25 35.65 81.28 35.45 81.35 35.25C81.4 35.06 81.5 34.89 81.62 34.75C81.76 34.59 81.92 34.47 82.11 34.39C82.33 34.3 82.58 34.25 82.82 34.26L82.81 34.26ZM76.74 34.26L76.74 38.37L75.84 38.37L75.84 35.11L74.9 35.11L74.9 36.09C74.9 36.39 74.88 36.69 74.85 36.99C74.82 37.25 74.75 37.5 74.64 37.73C74.55 37.94 74.39 38.12 74.21 38.25C73.97 38.4 73.7 38.47 73.42 38.47L73.3 37.73C73.45 37.7 73.6 37.64 73.72 37.54C73.82 37.45 73.89 37.34 73.94 37.21C73.99 37.06 74.02 36.9 74.04 36.74C74.04 36.57 74.04 36.36 74.04 36.13L74.04 34.29L76.74 34.26ZM68.96 35.11C68.86 35.11 68.76 35.13 68.67 35.17C68.59 35.2 68.52 35.25 68.46 35.32C68.41 35.38 68.37 35.46 68.34 35.53C68.31 35.61 68.3 35.7 68.3 35.78L68.3 36.89C68.3 36.98 68.31 37.07 68.34 37.15C68.37 37.23 68.41 37.31 68.46 37.37C68.52 37.44 68.59 37.49 68.67 37.52C68.77 37.57 68.86 37.59 68.96 37.58C69.06 37.59 69.16 37.57 69.25 37.54C69.33 37.51 69.42 37.45 69.48 37.38C69.6 37.25 69.67 37.07 69.66 36.89L69.66 35.78C69.66 35.69 69.65 35.61 69.62 35.53C69.59 35.45 69.54 35.37 69.48 35.31C69.42 35.24 69.33 35.19 69.25 35.15C69.16 35.12 69.06 35.1 68.96 35.11ZM68.96 34.26C69.19 34.26 69.42 34.3 69.63 34.38C69.82 34.46 69.99 34.57 70.14 34.72C70.28 34.86 70.39 35.03 70.46 35.22C70.53 35.43 70.57 35.64 70.57 35.86L70.57 36.83C70.57 37.05 70.53 37.28 70.45 37.5C70.38 37.68 70.27 37.86 70.13 38C69.99 38.14 69.81 38.25 69.62 38.32C69.41 38.4 69.19 38.43 68.96 38.43C68.71 38.44 68.46 38.4 68.22 38.31C68.04 38.22 67.87 38.1 67.73 37.96C67.6 37.81 67.5 37.63 67.44 37.44C67.37 37.24 67.34 37.03 67.34 36.83L67.34 35.86C67.34 35.65 67.37 35.45 67.44 35.25C67.5 35.06 67.6 34.89 67.73 34.75C67.87 34.59 68.04 34.47 68.22 34.39C68.46 34.3 68.71 34.25 68.96 34.26ZM63.67 37.15C63.68 37.09 63.68 37.03 63.67 36.98C63.65 36.92 63.61 36.87 63.57 36.83C63.53 36.79 63.47 36.75 63.41 36.73C63.33 36.7 63.25 36.69 63.16 36.69L62.42 36.69L62.42 37.6L63.16 37.6C63.24 37.61 63.31 37.6 63.38 37.58C63.45 37.55 63.52 37.52 63.57 37.47C63.64 37.37 63.68 37.26 63.67 37.15ZM63.57 35.51C63.58 35.46 63.57 35.41 63.55 35.36C63.52 35.31 63.49 35.26 63.45 35.23C63.34 35.14 63.2 35.1 63.05 35.12L62.36 35.12L62.36 35.94L63.03 35.94C63.1 35.95 63.18 35.94 63.25 35.92C63.32 35.9 63.38 35.86 63.43 35.81C63.48 35.77 63.51 35.72 63.54 35.67C63.56 35.61 63.57 35.56 63.57 35.5L63.57 35.51ZM64.6 37.15C64.6 37.32 64.57 37.49 64.5 37.65C64.43 37.79 64.34 37.92 64.22 38.03C64.1 38.14 63.96 38.23 63.81 38.28C63.65 38.34 63.49 38.37 63.32 38.37L61.45 38.37L61.45 34.29L63.18 34.29C63.38 34.29 63.57 34.32 63.76 34.37C63.91 34.43 64.06 34.51 64.18 34.61C64.3 34.71 64.39 34.84 64.45 34.98C64.51 35.13 64.54 35.29 64.54 35.45C64.53 35.61 64.49 35.76 64.42 35.9C64.34 36.06 64.2 36.19 64.03 36.25C64.12 36.29 64.2 36.34 64.27 36.4C64.34 36.47 64.4 36.54 64.45 36.63C64.5 36.71 64.54 36.79 64.56 36.89C64.59 36.97 64.6 37.06 64.6 37.15ZM56.07 37.03C56.1 37.17 56.18 37.3 56.29 37.4C56.41 37.5 56.56 37.55 56.72 37.54C56.82 37.54 56.93 37.53 57.02 37.49C57.1 37.45 57.17 37.39 57.23 37.33C57.29 37.27 57.34 37.19 57.37 37.11C57.4 37.02 57.41 36.94 57.4 36.85L57.4 36.7L56.28 36.7L56.28 35.91L57.4 35.91L57.4 35.76C57.41 35.68 57.41 35.61 57.4 35.53C57.38 35.45 57.35 35.37 57.3 35.31C57.24 35.24 57.18 35.19 57.1 35.15C56.99 35.12 56.88 35.1 56.77 35.1C56.61 35.1 56.46 35.15 56.33 35.24C56.22 35.33 56.13 35.46 56.1 35.6L55.24 35.3C55.35 35 55.54 34.73 55.8 34.55C56.1 34.36 56.44 34.26 56.79 34.27C57.05 34.26 57.3 34.3 57.54 34.4C57.72 34.48 57.88 34.6 58.01 34.75C58.13 34.9 58.22 35.07 58.28 35.26C58.33 35.46 58.36 35.66 58.36 35.87L58.36 36.84C58.36 37.06 58.33 37.28 58.26 37.49C58.19 37.68 58.09 37.85 57.96 37.99C57.82 38.14 57.65 38.25 57.46 38.33C57.24 38.41 57 38.45 56.76 38.45C56.42 38.46 56.08 38.36 55.79 38.17C55.54 37.99 55.35 37.73 55.25 37.43L56.07 37.03ZM173.53 11.96L177.24 7.25L183.87 7.25L176.86 16.16L173.53 11.96ZM105.84 7.25L105.84 22.29C105.84 23.15 105.66 24.01 105.33 24.81C105 25.61 104.51 26.34 103.89 26.95C103.28 27.57 102.56 28.05 101.75 28.39C100.95 28.72 100.1 28.89 99.23 28.89L87.29 28.89C85.54 28.89 83.86 28.19 82.63 26.95C81.39 25.72 80.69 24.04 80.68 22.29L80.68 7.25L85.87 7.25L85.87 22.29C85.87 22.47 85.91 22.65 85.98 22.81C86.05 22.98 86.16 23.13 86.29 23.26C86.41 23.39 86.57 23.49 86.73 23.56C86.9 23.64 87.08 23.67 87.26 23.68L99.2 23.68C99.38 23.67 99.56 23.64 99.73 23.56C99.89 23.49 100.04 23.39 100.17 23.26C100.43 23 100.58 22.65 100.58 22.28L100.58 7.25L105.84 7.25ZM77.74 28.89L61.11 28.89C59.37 28.87 57.7 28.17 56.46 26.94C55.23 25.7 54.52 24.03 54.5 22.29L54.5 13.87C54.51 12.12 55.21 10.44 56.45 9.2C57.68 7.96 59.36 7.27 61.11 7.26L77.74 7.26L77.74 12.46L61.11 12.46C60.74 12.46 60.39 12.61 60.13 12.87C59.88 13.13 59.73 13.48 59.73 13.85L59.73 22.29C59.73 22.47 59.77 22.65 59.83 22.82C59.9 22.99 60.01 23.14 60.14 23.27C60.26 23.4 60.42 23.5 60.59 23.57C60.75 23.64 60.94 23.68 61.12 23.68L77.75 23.68L77.74 28.89ZM133.41 17.98C133.71 18.61 133.87 19.3 133.87 20L133.87 24.25C133.87 24.86 133.75 25.46 133.51 26.03C133.28 26.59 132.94 27.1 132.5 27.52C132.08 27.95 131.57 28.3 131.01 28.53C130.45 28.76 129.85 28.88 129.24 28.88L108.7 28.88C108.75 21.68 108.7 14.49 108.7 7.27L129.24 7.27C129.85 7.27 130.45 7.39 131.01 7.62C131.57 7.86 132.08 8.2 132.51 8.63C133.36 9.5 133.83 10.67 133.83 11.88L133.83 15.92C133.85 16.63 133.7 17.34 133.41 17.98ZM128.64 23.67L128.64 20.58L116.69 20.58L116.69 15.38L128.66 15.38L128.66 12.53L114.57 12.53C114.57 16.25 114.6 19.96 114.6 23.68L128.64 23.67ZM133.97 28.87C135.58 25.67 137.04 22.72 138.49 19.77C140.4 15.9 142.32 12.01 143.98 8.76L144.04 8.64C144.43 8.01 144.97 7.5 145.62 7.15C146.26 6.8 146.98 6.62 147.72 6.64C148.46 6.61 149.2 6.78 149.86 7.13C150.52 7.48 151.07 8 151.46 8.64L151.54 8.79L160.96 27.94L168.86 17.86L160.54 7.25L167.17 7.25L184.12 28.87L177.49 28.87L172.18 22.09L166.86 28.87L150.94 28.87L144.71 25.9L147.06 21.23L153.33 24.2L147.74 12.83C146.11 16.08 144.64 19.07 143.16 22.06C142.02 24.36 140.89 26.67 139.8 28.84L133.97 28.87Z" fill="#828282" fill-opacity="1.000000" fill-rule="evenodd"/>
		<path id="Vector" d="M0 0L47.29 0L47.29 46L0 46L0 0Z" fill="#87D4F2" fill-opacity="1.000000" fill-rule="evenodd"/>
		<path id="Vector" d="M7.54 7.37L39.74 7.37L39.74 38.7L7.54 38.7L7.54 7.37Z" fill="#9EDAF0" fill-opacity="1.000000" fill-rule="evenodd"/>
		<path id="Vector" d="M12.68 12.33L34.61 12.33L34.61 33.66L12.68 33.66L12.68 12.33Z" fill="#B8E4F4" fill-opacity="1.000000" fill-rule="evenodd"/>
		<path id="Vector" d="M16.18 15.76L31.11 15.76L31.11 30.29L16.18 30.29L16.18 15.76Z" fill="#D1E8EF" fill-opacity="1.000000" fill-rule="evenodd"/>
		<path id="Vector" d="M25.13 26L45.37 44.13L26.75 24.45C26.97 24 27.09 23.5 27.09 23C27.09 22.5 26.97 22 26.75 21.55L45.38 1.85L25.14 19.97C24.67 19.75 24.16 19.64 23.65 19.64C23.14 19.64 22.63 19.75 22.17 19.97L1.92 1.87L20.53 21.54C20.31 21.99 20.2 22.48 20.2 22.98C20.2 23.48 20.31 23.98 20.53 24.43L1.9 44.14L22.15 26C22.62 26.21 23.13 26.32 23.64 26.32C24.15 26.32 24.66 26.21 25.13 26Z" fill="#EDF4F4" fill-opacity="1.000000" fill-rule="evenodd"/>
	</g>
</svg>
