<svg width="32.000000" height="32.000000" viewBox="0 0 32 32" fill="none" xmlns="http://www.w3.org/2000/svg" xmlns:xlink="http://www.w3.org/1999/xlink">
	<desc>
			Created with Pixso.
	</desc>
	<defs>
		<linearGradient id="paint_linear_0_1041_0" x1="7.489355" y1="25.191490" x2="38.808510" y2="0.000008" gradientUnits="userSpaceOnUse">
			<stop stop-color="#63AFCD"/>
			<stop offset="1.000000" stop-color="#FF374F"/>
		</linearGradient>
	</defs>
	<path id="free-icon-three-oclock-74736 1 (Traced)" d="M14.56 0.03C11.47 0.34 8.61 1.47 6.1 3.4C4.88 4.34 3.3 6.11 2.38 7.55C1.99 8.17 1.22 9.74 0.94 10.5C0.63 11.34 0.31 12.62 0.14 13.62C-0.05 14.84 -0.05 17.16 0.14 18.38C0.42 20.1 0.87 21.5 1.62 23.04C2.45 24.73 3.31 25.92 4.69 27.3C6.07 28.68 7.27 29.54 8.95 30.37C10.5 31.12 11.89 31.57 13.62 31.85C14.84 32.04 17.16 32.04 18.38 31.85C20.11 31.57 21.5 31.12 23.05 30.37C24.74 29.54 25.93 28.68 27.31 27.3C28.69 25.92 29.55 24.73 30.38 23.04C30.93 21.92 31.2 21.19 31.5 20.06C31.89 18.56 32 17.74 32 16C32 14.26 31.89 13.44 31.5 11.94C31.2 10.81 30.93 10.08 30.38 8.96C29.55 7.27 28.69 6.07 27.31 4.7C25.93 3.32 24.74 2.46 23.05 1.63C21.5 0.87 20.08 0.42 18.41 0.16C17.49 0.01 15.44 -0.05 14.56 0.03ZM17.85 4.01C21.8 4.65 25.08 7.06 26.88 10.63C27.72 12.3 28.12 14.03 28.12 16C28.12 18.76 27.29 21.19 25.61 23.39C23.72 25.85 20.99 27.46 17.82 28C16.91 28.15 15.09 28.15 14.18 28C11.53 27.55 9.33 26.44 7.46 24.59C5.6 22.75 4.44 20.49 4 17.81C3.84 16.91 3.84 15.09 4 14.18C4.44 11.53 5.56 9.33 7.4 7.46C9.3 5.56 11.77 4.32 14.37 3.98C14.66 3.95 14.99 3.9 15.09 3.89C15.49 3.84 17.25 3.91 17.85 4.01ZM15.36 6.06L14.81 6.5L14.81 10.16L14.81 13.82L14.41 14.19C13.72 14.83 13.46 15.58 13.64 16.46C13.84 17.45 14.55 18.16 15.54 18.36C16.42 18.54 17.17 18.28 17.81 17.59L18.18 17.19L20.74 17.19L23.3 17.19L23.85 16.64C24.15 16.34 24.39 16.05 24.39 16C24.39 15.95 24.15 15.66 23.85 15.36L23.3 14.81L20.75 14.81L18.2 14.81L17.7 14.3L17.19 13.8L17.19 10.16L17.19 6.51L16.62 6.09C16.31 5.85 16.02 5.65 15.98 5.64C15.94 5.62 15.66 5.81 15.36 6.06Z" fill="url(#paint_linear_0_1041_0)" fill-opacity="1.000000" fill-rule="evenodd"/>
</svg>
