<svg width="35.000000" height="31.000000" viewBox="0 0 35 31" fill="none" xmlns="http://www.w3.org/2000/svg" xmlns:xlink="http://www.w3.org/1999/xlink">
	<desc>
			Created with Pixso.
	</desc>
	<defs>
		<linearGradient id="paint_linear_0_1089_0" x1="8.191488" y1="24.404247" x2="42.446808" y2="-0.000004" gradientUnits="userSpaceOnUse">
			<stop stop-color="#63AFCD"/>
			<stop offset="1.000000" stop-color="#FF374F"/>
		</linearGradient>
	</defs>
	<path id="free-icon-portfolio-1063376 1 (Traced)" d="M12.79 0.06C11.91 0.23 11.03 0.93 10.66 1.73C10.41 2.27 10.32 2.73 10.32 3.51L10.32 4.12L5.56 4.12C0.93 4.12 0.8 4.12 0.54 4.26C0.37 4.35 0.22 4.5 0.13 4.67C0 4.94 0 5.05 0 16.51C0 24.09 0.02 28.21 0.06 28.45C0.3 29.69 1.29 30.69 2.52 30.92C3.03 31.02 31.96 31.02 32.47 30.92C33.05 30.81 33.66 30.49 34.08 30.07C34.5 29.64 34.82 29.04 34.93 28.45C34.97 28.21 35 24.1 35 16.53L35 4.98L34.84 4.67C34.55 4.09 34.85 4.12 29.44 4.12L24.67 4.12L24.67 3.51C24.67 3.17 24.64 2.73 24.6 2.53C24.37 1.29 23.38 0.29 22.15 0.06C21.7 -0.03 13.22 -0.02 12.79 0.06ZM22.07 2.2C22.49 2.43 22.62 2.75 22.62 3.49L22.62 4.12L17.5 4.12L12.37 4.12L12.37 3.49C12.37 2.76 12.5 2.44 12.91 2.2C13.15 2.06 13.2 2.06 17.49 2.06C21.77 2.05 21.82 2.06 22.07 2.2ZM32.52 6.27C32.5 6.32 31.77 8.52 30.9 11.17C29.78 14.55 29.26 16.04 29.14 16.18C29.05 16.29 28.86 16.41 28.72 16.45C28.57 16.5 27.33 16.52 25.54 16.52L22.62 16.52L22.62 15.9C22.62 15.13 22.49 14.81 22.08 14.6C21.81 14.46 21.68 14.46 17.5 14.46C13.31 14.46 13.18 14.46 12.91 14.6C12.51 14.81 12.37 15.13 12.37 15.9L12.37 16.52L9.45 16.52C7.66 16.52 6.42 16.5 6.27 16.45C6.13 16.41 5.94 16.29 5.85 16.18C5.73 16.04 5.21 14.55 4.09 11.17C3.22 8.52 2.49 6.32 2.47 6.27C2.45 6.21 5.48 6.19 17.5 6.19C29.51 6.19 32.54 6.21 32.52 6.27ZM3.89 16.93C4.11 17.37 4.72 17.99 5.15 18.2C5.88 18.58 6 18.59 9.31 18.59L12.37 18.59L12.37 19.21C12.37 19.98 12.51 20.31 12.91 20.52C13.18 20.65 13.31 20.66 17.5 20.66C21.68 20.66 21.81 20.65 22.08 20.52C22.49 20.31 22.62 19.98 22.62 19.21L22.62 18.59L25.68 18.59C28.99 18.59 29.11 18.58 29.84 18.2C30.27 17.99 30.88 17.37 31.1 16.93C31.19 16.77 31.63 15.5 32.1 14.11L32.93 11.6L32.94 19.86L32.94 28.11L32.8 28.37C32.72 28.52 32.54 28.7 32.4 28.78L32.14 28.93L17.5 28.93L2.85 28.93L2.59 28.78C2.45 28.7 2.27 28.52 2.19 28.37L2.05 28.11L2.05 19.86L2.06 11.6L2.89 14.11C3.36 15.5 3.8 16.77 3.89 16.93ZM20.57 17.56L20.57 18.59L17.5 18.59L14.42 18.59L14.42 17.56L14.42 16.52L17.5 16.52L20.57 16.52L20.57 17.56Z" fill="url(#paint_linear_0_1089_0)" fill-opacity="1.000000" fill-rule="evenodd"/>
</svg>
