<svg width="32.000000" height="32.000000" viewBox="0 0 32 32" fill="none" xmlns="http://www.w3.org/2000/svg" xmlns:xlink="http://www.w3.org/1999/xlink">
	<desc>
			Created with Pixso.
	</desc>
	<defs>
		<linearGradient id="paint_linear_0_1047_0" x1="7.489355" y1="25.191490" x2="38.808510" y2="0.000008" gradientUnits="userSpaceOnUse">
			<stop stop-color="#63AFCD"/>
			<stop offset="1.000000" stop-color="#FF374F"/>
		</linearGradient>
	</defs>
	<path id="free-icon-approve-5957126 1 (Traced)" d="M9.37 3.4C9.37 5.65 9.35 6.91 9.3 7.13C9.13 7.93 8.56 8.68 7.83 9.04C7.21 9.36 7.06 9.37 3.4 9.37L0 9.37L0 20.31C0 31.15 0 31.25 0.12 31.5C0.2 31.66 0.33 31.79 0.49 31.87C0.74 31.99 0.85 32 8.56 32L16.37 32L16.37 30.7C16.37 29.17 16.44 28.76 16.82 28C17.02 27.58 17.19 27.35 17.58 26.96C18.43 26.12 19.35 25.75 20.64 25.75C21.21 25.75 21.25 25.74 21.25 25.61C21.25 25.54 21.06 23.65 20.84 21.41C20.38 16.94 20.37 16.48 20.62 15.65C21.14 13.99 22.46 12.79 24.2 12.41L24.37 12.37L24.37 6.55C24.37 0.85 24.37 0.74 24.25 0.49C24.17 0.33 24.03 0.2 23.87 0.12C23.63 0 23.52 0 16.5 0L9.37 0L9.37 3.4ZM4 4.03L0.53 7.5L3.64 7.5C6.63 7.5 6.76 7.49 7 7.37C7.16 7.29 7.29 7.16 7.37 7C7.49 6.76 7.5 6.65 7.48 3.65L7.46 0.56L4 4.03ZM20.12 3.87C20.4 4.01 20.62 4.37 20.62 4.68C20.62 4.99 20.4 5.35 20.12 5.49C19.88 5.62 19.76 5.62 15.93 5.62L11.98 5.62L11.73 5.48C11.1 5.13 11.1 4.27 11.72 3.89L11.96 3.75L15.92 3.75C19.76 3.75 19.88 3.75 20.12 3.87ZM20.12 7.62C20.4 7.76 20.62 8.12 20.62 8.43C20.62 8.74 20.4 9.1 20.12 9.24C19.88 9.37 19.76 9.37 15.93 9.37C12.11 9.37 11.98 9.37 11.74 9.24C11.11 8.92 11.09 8.02 11.72 7.64L11.96 7.5L15.92 7.5C19.76 7.5 19.88 7.5 20.12 7.62ZM18.25 11.37C18.53 11.51 18.75 11.87 18.75 12.18C18.75 12.49 18.53 12.85 18.25 12.99C18.01 13.12 17.89 13.12 11.25 13.12C4.6 13.12 4.49 13.12 4.24 12.99C3.61 12.67 3.59 11.77 4.22 11.39L4.46 11.25L11.23 11.25C17.89 11.25 18.01 11.25 18.25 11.37ZM24.46 14.27C23.26 14.56 22.32 15.71 22.31 16.89C22.31 17.07 22.5 19.13 22.73 21.48L23.15 25.75L25.12 25.75L27.09 25.75L27.52 21.48C27.75 19.13 27.94 17.07 27.94 16.89C27.94 16.71 27.88 16.4 27.82 16.19C27.37 14.76 25.9 13.92 24.46 14.27ZM18.25 15.12C18.53 15.26 18.75 15.62 18.75 15.93C18.75 16.24 18.53 16.6 18.25 16.74C18.01 16.87 17.89 16.87 11.24 16.87L4.48 16.87L4.23 16.73C3.6 16.38 3.6 15.52 4.22 15.14L4.46 15L11.23 15C17.89 15 18.01 15 18.25 15.12ZM9.35 18.97C10.29 19.16 11.07 19.59 11.74 20.27C12.35 20.89 12.75 21.57 12.98 22.39C13.12 22.92 13.12 24.2 12.98 24.72C12.51 26.41 11.18 27.71 9.5 28.13C9.31 28.17 8.83 28.21 8.43 28.21C8.03 28.21 7.56 28.17 7.37 28.13C5.6 27.69 4.21 26.25 3.84 24.48C3.18 21.24 6.11 18.3 9.35 18.97ZM7.77 20.83C7.26 20.96 6.86 21.18 6.46 21.58C5.35 22.69 5.35 24.42 6.46 25.53C7.57 26.64 9.3 26.64 10.41 25.53C11.52 24.42 11.52 22.69 10.41 21.58C9.69 20.87 8.74 20.6 7.77 20.83ZM19.83 27.71C19.19 27.91 18.73 28.32 18.44 28.93C18.28 29.26 18.28 29.32 18.26 30.64L18.24 32L24.75 32C31.14 32 31.26 31.99 31.5 31.87C31.66 31.79 31.79 31.66 31.88 31.49C32 31.25 32.01 31.14 31.99 30.25C31.97 29.29 31.96 29.26 31.76 28.86C31.53 28.38 31.19 28.05 30.69 27.82L30.34 27.65L25.22 27.64C21.1 27.63 20.04 27.64 19.83 27.71Z" fill="url(#paint_linear_0_1047_0)" fill-opacity="1.000000" fill-rule="evenodd"/>
</svg>
