<svg width="34.000000" height="32.000000" viewBox="0 0 34 32" fill="none" xmlns="http://www.w3.org/2000/svg" xmlns:xlink="http://www.w3.org/1999/xlink">
	<desc>
			Created with Pixso.
	</desc>
	<defs>
		<linearGradient id="paint_linear_0_1053_0" x1="7.957445" y1="25.191479" x2="41.234055" y2="0.000011" gradientUnits="userSpaceOnUse">
			<stop stop-color="#63AFCD"/>
			<stop offset="1.000000" stop-color="#FF374F"/>
		</linearGradient>
	</defs>
	<path id="free-icon-thumb-up-5323362 1 (Traced)" d="M14.26 0.07C13.97 0.2 13.68 0.57 13.62 0.86C13.6 1 13.61 1.49 13.66 1.95C13.82 3.76 13.9 6.55 13.81 7.59C13.74 8.55 13.72 8.62 13.43 9.24C13.08 9.97 12.4 11.11 11.41 12.66C10.73 13.71 10.72 13.71 10.46 13.71L10.19 13.71L10.21 21.77L10.23 29.84L11.18 30.19C11.71 30.38 12.43 30.62 12.78 30.71L13.41 30.89L21.07 30.89C29.4 30.89 29.09 30.9 29.91 30.48C30.74 30.06 31.47 29.08 31.67 28.11C31.78 27.55 31.71 26.78 31.5 26.24L31.32 25.79L31.77 25.36C32.79 24.4 33.13 22.91 32.63 21.66L32.45 21.21L32.9 20.79C34.36 19.41 34.36 17.18 32.9 15.79L32.45 15.37L32.63 14.93C33.38 13.06 32.25 10.91 30.27 10.38C29.93 10.29 29.09 10.28 25.13 10.28L20.39 10.28L20.39 7.22C20.39 3.87 20.36 3.55 19.98 2.73C19.43 1.55 18.19 0.64 16.54 0.22C15.67 0 14.57 -0.07 14.26 0.07ZM0.65 12.67C0.37 12.79 0.07 13.16 0.02 13.45C0 13.57 -0.01 17.64 0 22.49C0.02 31.27 0.02 31.31 0.17 31.5C0.25 31.61 0.4 31.77 0.51 31.85C0.7 31.99 0.78 32 3.95 32C7.12 32 7.21 31.99 7.4 31.85C7.51 31.77 7.66 31.61 7.74 31.5C7.89 31.31 7.89 31.28 7.89 22.3C7.89 13.31 7.89 13.29 7.74 13.1C7.66 12.99 7.51 12.83 7.4 12.75C7.21 12.61 7.11 12.6 4.04 12.59C1.51 12.57 0.83 12.59 0.65 12.67Z" fill="url(#paint_linear_0_1053_0)" fill-opacity="1.000000" fill-rule="evenodd"/>
</svg>
