<svg width="17.000000" height="34.000000" viewBox="0 0 17 34" fill="none" xmlns="http://www.w3.org/2000/svg" xmlns:xlink="http://www.w3.org/1999/xlink">
	<desc>
			Created with Pixso.
	</desc>
	<defs>
		<linearGradient id="paint_linear_0_1059_0" x1="3.978724" y1="26.765957" x2="20.617031" y2="0.000002" gradientUnits="userSpaceOnUse">
			<stop stop-color="#63AFCD"/>
			<stop offset="1.000000" stop-color="#FF374F"/>
		</linearGradient>
	</defs>
	<path id="free-icon-crane-3865470 1 (Traced)" d="M0.46 0.11C-0.03 0.32 0 -0.02 0 5.83L0 11.12L1.97 14.08L3.94 17.03L8.5 17.03L13.05 17.03L15.02 14.08L16.99 11.12L16.99 5.83C16.99 -0.04 17.02 0.32 16.52 0.1C16.16 -0.04 0.8 -0.04 0.46 0.11ZM3.37 2.42C3.68 2.55 3.85 2.8 3.85 3.12C3.85 3.63 3.34 4 2.86 3.84C2.17 3.62 2.13 2.71 2.78 2.43C3.07 2.3 3.08 2.3 3.37 2.42ZM14.47 2.6C14.87 2.98 14.64 3.76 14.09 3.87C13.63 3.96 13.14 3.57 13.14 3.12C13.14 2.86 13.36 2.53 13.6 2.43C13.9 2.3 14.22 2.36 14.47 2.6ZM3.37 9.38C3.68 9.51 3.85 9.75 3.85 10.07C3.85 10.59 3.34 10.96 2.86 10.8C2.17 10.57 2.13 9.67 2.78 9.38C3.07 9.26 3.08 9.26 3.37 9.38ZM14.19 9.38C14.69 9.58 14.83 10.16 14.49 10.57C14.14 10.99 13.48 10.9 13.24 10.4C13.13 10.17 13.13 10.11 13.22 9.84C13.3 9.63 13.4 9.51 13.58 9.41C13.88 9.25 13.88 9.25 14.19 9.38ZM6.17 19.52L6.17 20.49L5.43 20.86C3.58 21.76 2.21 23.44 1.73 25.4C1.49 26.34 1.49 27.89 1.73 28.77C2.42 31.36 4.47 33.34 7.01 33.87C7.78 34.04 9.21 34.04 9.98 33.87C11.52 33.55 13.06 32.6 13.43 31.72C13.89 30.66 13.24 29.38 12.09 29.12C11.56 29 11.08 29.11 10.42 29.5C9.52 30.02 9.27 30.1 8.42 30.1C7.72 30.11 7.62 30.09 7.19 29.88C6.53 29.57 6.01 29.08 5.72 28.5C5.51 28.08 5.48 27.93 5.46 27.31C5.42 26.48 5.55 25.95 5.92 25.39C6.46 24.57 7.28 24.12 8.51 23.98C9.54 23.87 10.11 23.52 10.54 22.74L10.78 22.28L10.81 20.42L10.83 18.55L8.5 18.55L6.17 18.55L6.17 19.52Z" fill="url(#paint_linear_0_1059_0)" fill-opacity="1.000000" fill-rule="evenodd"/>
</svg>
