<svg width="31.000000" height="34.000000" viewBox="0 0 31 34" fill="none" xmlns="http://www.w3.org/2000/svg" xmlns:xlink="http://www.w3.org/1999/xlink">
	<desc>
			Created with Pixso.
	</desc>
	<defs>
		<linearGradient id="paint_linear_0_1063_0" x1="7.255318" y1="26.765955" x2="37.595753" y2="0.000008" gradientUnits="userSpaceOnUse">
			<stop stop-color="#63AFCD"/>
			<stop offset="1.000000" stop-color="#FF374F"/>
		</linearGradient>
	</defs>
	<path id="free-icon-house-120795 1 (Traced)" d="M14.65 0.04C14.17 0.13 13.49 0.38 13.03 0.65C12.74 0.81 11.13 2.36 6.68 6.75C3.4 9.99 0.62 12.77 0.51 12.93C-0.12 13.83 -0.18 15.13 0.38 16.15C0.64 16.63 1.18 17.14 1.69 17.39L2.13 17.6L2.15 23.79C2.18 30.75 2.14 30.24 2.7 31.38C3.35 32.69 4.57 33.6 6.07 33.9C6.54 34 7.58 34.01 15.76 33.99L24.93 33.97L25.46 33.78C26.25 33.51 26.87 33.12 27.46 32.54C27.88 32.11 28.03 31.91 28.31 31.33C28.49 30.96 28.68 30.5 28.73 30.31C28.79 30.06 28.82 28.48 28.83 23.79L28.86 17.6L29.3 17.39C29.81 17.14 30.35 16.63 30.61 16.15C31.17 15.13 31.11 13.83 30.48 12.93C30.37 12.77 27.59 9.99 24.31 6.75C17.85 0.37 18.05 0.55 16.94 0.2C16.34 0.01 15.25 -0.06 14.65 0.04ZM16.32 2.21C16.49 2.25 16.79 2.4 16.99 2.53C17.18 2.66 19.93 5.33 23.09 8.46C28.74 14.06 28.84 14.17 28.89 14.47C28.97 15.06 28.59 15.54 27.95 15.63C27.35 15.72 27.08 15.88 26.85 16.29C26.75 16.47 26.74 17.12 26.71 23.2L26.67 29.92L26.46 30.35C26.07 31.17 25.27 31.75 24.34 31.88C23.79 31.96 7.2 31.96 6.65 31.88C5.72 31.75 4.92 31.17 4.53 30.35L4.32 29.92L4.29 23.2C4.25 17.12 4.24 16.47 4.14 16.29C3.91 15.88 3.64 15.72 3.04 15.63C2.4 15.54 2.02 15.06 2.1 14.47C2.15 14.17 2.25 14.06 7.9 8.46C11.06 5.33 13.81 2.66 14 2.53C14.7 2.07 15.45 1.96 16.32 2.21ZM9.74 13.17C9.2 13.44 9.12 13.71 9.12 15.31L9.12 16.58L8.8 16.6C8.52 16.62 8.47 16.65 8.42 16.81C8.35 16.99 8.39 17.03 9.23 17.86C9.71 18.33 10.14 18.72 10.19 18.72C10.24 18.72 10.68 18.33 11.16 17.86C12 17.03 12.03 16.99 11.97 16.81C11.91 16.65 11.86 16.62 11.58 16.6L11.27 16.58L11.27 15.86L11.27 15.13L15.49 15.13L19.71 15.13L19.74 15.54C19.77 15.79 19.83 16.01 19.91 16.12C20.4 16.78 21.29 16.75 21.7 16.06C21.82 15.85 21.84 15.72 21.84 14.83C21.84 13.72 21.79 13.54 21.39 13.26L21.17 13.1L15.56 13.09C10.58 13.07 9.93 13.08 9.74 13.17ZM19.81 19.93C19.26 20.47 18.99 20.79 18.99 20.89C18.99 21.08 19.23 21.24 19.5 21.24L19.72 21.24L19.72 21.94L19.72 22.64L15.5 22.64L11.27 22.64L11.26 22.36C11.26 21.98 11.06 21.56 10.79 21.37C10.47 21.15 9.91 21.14 9.6 21.36C9.2 21.65 9.15 21.82 9.15 22.94C9.15 24.06 9.21 24.26 9.65 24.55L9.88 24.7L15.5 24.7L21.11 24.7L21.34 24.55C21.8 24.24 21.84 24.09 21.86 22.59L21.88 21.24L22.11 21.24C22.36 21.24 22.61 21.05 22.61 20.87C22.61 20.81 22.24 20.39 21.79 19.94C21.17 19.31 20.93 19.12 20.8 19.12C20.67 19.12 20.43 19.31 19.81 19.93Z" fill="url(#paint_linear_0_1063_0)" fill-opacity="1.000000" fill-rule="evenodd"/>
</svg>
