<svg width="34.000000" height="32.000000" viewBox="0 0 34 32" fill="none" xmlns="http://www.w3.org/2000/svg" xmlns:xlink="http://www.w3.org/1999/xlink">
	<desc>
			Created with Pixso.
	</desc>
	<defs>
		<linearGradient id="paint_linear_0_1069_0" x1="7.957445" y1="25.191479" x2="41.234055" y2="0.000011" gradientUnits="userSpaceOnUse">
			<stop stop-color="#63AFCD"/>
			<stop offset="1.000000" stop-color="#FF374F"/>
		</linearGradient>
	</defs>
	<path id="free-icon-mobile-home-3764898 1 (Traced)" d="M26.43 0.07C26.16 0.23 26.1 0.43 26.1 1.2L26.09 1.92L27.28 2.33C27.94 2.55 28.5 2.74 28.52 2.74C28.54 2.74 28.55 2.21 28.54 1.56L28.52 0.39L28.33 0.2C28.15 0.02 28.12 0.02 27.37 0C26.81 -0.01 26.55 0.01 26.43 0.07ZM8.56 2.98C3.98 4.58 0.22 5.9 0.21 5.9C0.2 5.9 0.15 5.99 0.1 6.1C0.04 6.21 0 6.47 0 6.71C0 7.05 0.02 7.14 0.16 7.28C0.24 7.37 0.39 7.46 0.48 7.48C0.66 7.53 0.33 7.64 10 4.26C13.76 2.94 16.92 1.87 17 1.87C17.09 1.87 20.62 3.07 24.83 4.55C34.51 7.93 33.37 7.55 33.64 7.42C33.9 7.29 34 7.09 34 6.63C34 6.26 33.86 5.94 33.68 5.87C33.58 5.83 26 3.18 18.66 0.62C17.77 0.3 17.01 0.05 16.97 0.06C16.93 0.06 13.15 1.37 8.56 2.98ZM9.66 5.67C5.71 7.05 2.48 8.18 2.47 8.18C2.46 8.19 2.45 12.35 2.45 17.43L2.45 26.67L2.61 26.86L2.77 27.05L7.46 27.07L12.14 27.09L12.16 20.35L12.18 13.6L12.33 13.32C12.53 12.93 13.03 12.51 13.43 12.39C13.93 12.24 20.06 12.24 20.56 12.39C20.96 12.51 21.46 12.93 21.66 13.32L21.81 13.6L21.83 20.34L21.85 27.09L26.39 27.09C31.25 27.09 31.3 27.08 31.47 26.76C31.52 26.66 31.53 23.93 31.52 17.4L31.5 8.17L24.3 5.66C20.34 4.27 17.04 3.15 16.96 3.15C16.89 3.15 13.6 4.29 9.66 5.67ZM10.19 12.42C10.49 12.55 10.79 12.88 10.87 13.15C10.93 13.39 10.93 19.8 10.87 20.04C10.8 20.29 10.43 20.7 10.17 20.81C9.84 20.95 4.73 20.94 4.39 20.79C4.08 20.66 3.93 20.52 3.77 20.21C3.65 19.98 3.65 19.77 3.65 16.62C3.65 13.37 3.65 13.27 3.79 12.98C3.93 12.68 4.19 12.45 4.5 12.36C4.6 12.33 5.86 12.3 7.3 12.3C9.71 12.29 9.94 12.3 10.19 12.42ZM29.79 12.5C29.95 12.61 30.12 12.8 30.2 12.98C30.34 13.27 30.34 13.35 30.34 16.58C30.34 19.41 30.33 19.93 30.24 20.14C30.1 20.47 29.96 20.62 29.65 20.77C29.4 20.89 29.16 20.9 26.7 20.9C24.61 20.9 23.98 20.88 23.82 20.81C23.56 20.7 23.19 20.29 23.12 20.04C23.06 19.8 23.06 13.39 23.12 13.15C23.2 12.88 23.5 12.56 23.8 12.41C24.05 12.3 24.26 12.29 26.79 12.31L29.52 12.32L29.79 12.5ZM4.89 13.55C4.86 13.57 4.84 14.96 4.84 16.64L4.84 19.69L7.27 19.69L9.69 19.69L9.69 16.59L9.69 13.5L7.31 13.5C6 13.5 4.91 13.52 4.89 13.55ZM13.7 13.61C13.59 13.66 13.46 13.79 13.42 13.88C13.36 14 13.34 15.85 13.34 20.56L13.34 27.09L17 27.09L20.65 27.09L20.65 20.56C20.65 13.37 20.67 13.73 20.24 13.57C20.1 13.52 19.04 13.5 16.97 13.5C14.35 13.5 13.88 13.52 13.7 13.61ZM24.3 16.59L24.3 19.69L26.72 19.69L29.15 19.69L29.13 16.61L29.11 13.53L26.71 13.52L24.3 13.5L24.3 16.59ZM19.76 19.79C20 19.96 20.06 20.23 20.04 21.03C20.02 21.76 20.01 21.79 19.83 21.95C19.63 22.12 19.33 22.16 19.11 22.04C18.89 21.92 18.79 21.56 18.79 20.9C18.79 20.25 18.89 19.89 19.1 19.76C19.27 19.66 19.6 19.67 19.76 19.79ZM4.42 28.62C4.2 29.1 4.22 30.01 4.46 30.52C4.74 31.1 5.05 31.42 5.61 31.7C6.06 31.92 6.17 31.95 6.62 31.95C7.5 31.96 8.2 31.59 8.67 30.89C9.11 30.25 9.21 29.29 8.92 28.58L8.81 28.3L6.69 28.3L4.57 28.3L4.42 28.62ZM12.75 28.9L12.75 29.51L17 29.51L21.25 29.51L21.25 28.9L21.25 28.3L17 28.3L12.75 28.3L12.75 28.9ZM25.07 28.58C24.78 29.29 24.88 30.25 25.32 30.89C25.79 31.59 26.5 31.96 27.36 31.95C28.15 31.95 28.92 31.53 29.33 30.87C29.77 30.18 29.85 29.29 29.56 28.61L29.42 28.3L27.3 28.3L25.18 28.3L25.07 28.58ZM12.75 31.08C12.75 31.56 12.83 31.76 13.07 31.89C13.24 31.98 13.76 32 17 32C20.23 32 20.75 31.98 20.92 31.89C21.16 31.76 21.25 31.56 21.25 31.08L21.25 30.72L17 30.72L12.75 30.72L12.75 31.08Z" fill="url(#paint_linear_0_1069_0)" fill-opacity="1.000000" fill-rule="evenodd"/>
</svg>
