<svg width="34.000000" height="32.000000" viewBox="0 0 34 32" fill="none" xmlns="http://www.w3.org/2000/svg" xmlns:xlink="http://www.w3.org/1999/xlink">
	<desc>
			Created with Pixso.
	</desc>
	<defs>
		<linearGradient id="paint_linear_0_1075_0" x1="7.957445" y1="25.191479" x2="41.234055" y2="0.000011" gradientUnits="userSpaceOnUse">
			<stop stop-color="#63AFCD"/>
			<stop offset="1.000000" stop-color="#FF374F"/>
		</linearGradient>
	</defs>
	<path id="free-icon-repair-tools-4479614 1 (Traced)" d="M12.06 0.05C10.86 0.24 9.52 0.81 8.58 1.54C8.27 1.78 6.99 3.01 5.74 4.28C3.13 6.93 3.22 6.78 3.78 7.41C4.02 7.69 4.1 7.83 4.1 8.01C4.1 8.35 3.9 8.57 3.54 8.62L3.24 8.66L5.33 10.77L7.42 12.88L7.42 12.59C7.42 12.2 7.64 11.98 8.02 11.98C8.27 11.98 8.35 12.04 8.87 12.56C9.37 13.04 9.49 13.13 9.69 13.13C9.91 13.13 10.15 12.91 12.64 10.39C15.13 7.87 15.34 7.64 15.34 7.42C15.34 7.2 15.23 7.06 14.28 6.09C13.31 5.09 13.22 4.98 13.22 4.74C13.22 4.39 13.54 4.04 14.09 3.77C14.67 3.5 15.13 3.41 15.98 3.41C16.75 3.41 17.39 3.52 18.14 3.8C18.77 4.02 18.91 4.02 19.13 3.8C19.44 3.49 19.37 3.25 18.79 2.64C17.65 1.44 16.23 0.59 14.69 0.19C14.02 0.02 12.7 -0.05 12.06 0.05ZM26.48 0.02C26.4 0.04 26.12 0.1 25.84 0.17C24.22 0.54 22.78 1.77 22.04 3.4C21.63 4.31 21.47 5.63 21.64 6.59L21.72 7L20.09 8.65C19.19 9.56 18.45 10.34 18.45 10.38C18.45 10.47 22.5 14.56 22.59 14.56C22.63 14.56 23.4 13.81 24.29 12.91L25.92 11.26L26.41 11.35C26.98 11.45 28 11.4 28.57 11.24C30.03 10.85 31.17 10.03 31.97 8.79C32.61 7.79 32.85 6.94 32.84 5.62C32.83 4.78 32.81 4.58 32.64 4.07C32.51 3.66 32.4 3.44 32.26 3.33C31.9 3.05 31.77 3.14 30.18 4.75L28.71 6.22L27.9 6.03L27.09 5.83L26.9 5.01L26.7 4.19L28.2 2.67C29.73 1.12 29.8 1.02 29.63 0.69C29.53 0.51 29.14 0.31 28.6 0.16C28.19 0.05 26.76 -0.05 26.48 0.02ZM0.89 9.18C0.19 9.91 0 10.27 0 10.84C-0.01 11.54 0.15 11.75 2.24 13.86C4.3 15.93 4.46 16.05 5.16 16.06C5.72 16.06 6.14 15.82 6.84 15.11L7.42 14.52L4.46 11.53L1.51 8.55L0.89 9.18ZM13.41 11.18C12.3 12.31 11.38 13.27 11.38 13.31C11.38 13.35 15.41 17.45 20.35 22.43C30.65 32.83 29.68 31.96 31.04 31.96C32.07 31.95 32.46 31.8 33.14 31.11C33.82 30.42 33.97 30.03 33.98 28.99C33.98 27.61 34.84 28.59 24.55 18.18C19.62 13.2 15.56 9.12 15.52 9.12C15.48 9.12 14.53 10.05 13.41 11.18ZM10.35 18.49L8.15 20.71L7.67 20.63C7.08 20.52 6.09 20.58 5.44 20.74C3.48 21.26 1.91 22.83 1.36 24.85C1.19 25.49 1.19 26.99 1.36 27.63C1.52 28.21 1.72 28.61 1.9 28.71C2.23 28.88 2.33 28.81 3.86 27.26L5.37 25.75L6.18 25.95L6.98 26.15L7.18 26.96L7.38 27.78L5.92 29.26C4.33 30.87 4.24 31.01 4.52 31.37C4.76 31.68 5.92 32 6.85 32C8.87 32 10.81 30.84 11.8 29.06C12.39 27.99 12.64 26.53 12.44 25.39L12.36 24.97L14.56 22.75C15.77 21.52 16.76 20.49 16.76 20.45C16.76 20.36 12.71 16.27 12.62 16.27C12.58 16.27 11.56 17.27 10.35 18.49Z" fill="url(#paint_linear_0_1075_0)" fill-opacity="1.000000" fill-rule="evenodd"/>
</svg>
