<svg width="32.000000" height="32.000000" viewBox="0 0 32 32" fill="none" xmlns="http://www.w3.org/2000/svg" xmlns:xlink="http://www.w3.org/1999/xlink">
	<desc>
			Created with Pixso.
	</desc>
	<defs>
		<linearGradient id="paint_linear_0_1079_0" x1="7.489355" y1="25.191490" x2="38.808510" y2="0.000008" gradientUnits="userSpaceOnUse">
			<stop stop-color="#63AFCD"/>
			<stop offset="1.000000" stop-color="#FF374F"/>
		</linearGradient>
	</defs>
	<path id="free-icon-foundation-7140907 1 (Traced)" d="M7.47 0.08C7.18 0.22 6.91 0.5 6.8 0.8C6.74 0.95 6.71 2.87 6.71 6.66L6.71 12.3L3.69 14.01C2.03 14.94 0.57 15.81 0.45 15.93C0.01 16.4 -0.01 16.52 0 19.47C0 22.46 0.01 22.57 0.52 23.03C0.83 23.32 15.15 31.78 15.55 31.92C15.92 32.05 16.36 32.01 16.74 31.81C17.54 31.39 31.27 23.21 31.47 23.04C31.98 22.57 31.99 22.47 31.99 19.45L32 16.71L31.79 16.29C31.62 15.95 31.49 15.82 31.13 15.61C30.88 15.47 29.4 14.63 27.84 13.74L24.99 12.13L24.95 6.46C24.92 0.89 24.91 0.78 24.75 0.56C24.44 0.14 24.18 0.01 23.67 0.01C23.17 0.01 22.91 0.14 22.6 0.56C22.44 0.78 22.43 0.89 22.39 5.71L22.35 10.64L19.83 9.21L17.31 7.78L17.27 4.28C17.24 0.91 17.23 0.78 17.07 0.56C16.76 0.14 16.5 0.01 15.99 0.01C15.49 0.01 15.23 0.14 14.92 0.56C14.76 0.78 14.75 0.91 14.71 4.29L14.67 7.79L12 9.3C10.53 10.13 9.31 10.81 9.3 10.81C9.29 10.81 9.27 8.56 9.26 5.8C9.23 0.88 9.23 0.78 9.07 0.56C8.98 0.44 8.81 0.27 8.69 0.18C8.43 -0.01 7.79 -0.07 7.47 0.08ZM14.92 21.23C15.23 21.65 15.49 21.78 15.99 21.78C16.5 21.78 16.76 21.65 17.07 21.23C17.23 21.01 17.24 20.9 17.27 15.87L17.31 10.74L19.83 12.16L22.35 13.59L22.39 15.05C22.44 16.64 22.46 16.72 22.99 17.12C23.3 17.35 24.05 17.35 24.36 17.12C24.81 16.78 24.91 16.56 24.95 15.8L24.99 15.08L26.63 16.01C27.54 16.52 28.3 16.96 28.33 16.99C28.36 17.02 25.6 18.64 22.19 20.6L16 24.16L11.5 21.57C9.02 20.14 6.23 18.54 5.29 18L3.58 17.02L4.97 16.24C5.73 15.81 6.43 15.41 6.53 15.35C6.69 15.24 6.7 15.25 6.73 15.87C6.76 16.55 6.86 16.79 7.3 17.12C7.61 17.35 8.37 17.35 8.68 17.12C9.2 16.73 9.23 16.63 9.27 15.14L9.31 13.77L11.99 12.26L14.67 10.74L14.71 15.87C14.75 20.9 14.76 21.01 14.92 21.23ZM9.11 23.16C12.52 25.13 15.47 26.77 15.65 26.82C15.91 26.89 16.08 26.89 16.34 26.82C16.53 26.77 19.49 25.12 22.92 23.14C26.35 21.17 29.22 19.52 29.29 19.48C29.42 19.41 29.43 19.48 29.43 20.36L29.43 21.32L22.72 25.3L16 29.28L11.5 26.61C9.02 25.14 5.99 23.35 4.77 22.63L2.55 21.32L2.55 20.36L2.55 19.4L2.73 19.5C2.83 19.55 5.7 21.2 9.11 23.16Z" fill="url(#paint_linear_0_1079_0)" fill-opacity="1.000000" fill-rule="evenodd"/>
</svg>
