<svg width="42.000000" height="29.000000" viewBox="0 0 42 29" fill="none" xmlns="http://www.w3.org/2000/svg" xmlns:xlink="http://www.w3.org/1999/xlink">
	<desc>
			Created with Pixso.
	</desc>
	<defs>
		<linearGradient id="paint_linear_0_1085_0" x1="9.829788" y1="22.829788" x2="50.936172" y2="-0.000008" gradientUnits="userSpaceOnUse">
			<stop stop-color="#63AFCD"/>
			<stop offset="1.000000" stop-color="#FF374F"/>
		</linearGradient>
	</defs>
	<path id="free-icon-valve-8098875 1 (Traced)" d="M12.6 0.09C11.6 0.45 10.99 1.3 10.98 2.34C10.98 3.36 11.46 4.14 12.36 4.58L12.83 4.81L21 4.81L29.16 4.81L29.63 4.58C30.19 4.31 30.7 3.76 30.88 3.25C30.95 3.04 31.01 2.63 31.01 2.33C31.01 1.41 30.52 0.66 29.61 0.17C29.34 0.02 28.99 0.02 21.12 0C14.35 -0.01 12.86 0 12.6 0.09ZM18.53 8.7L18.53 10.12L21 10.12L23.46 10.12L23.46 8.7L23.46 7.28L21 7.28L18.53 7.28L18.53 8.7ZM15.66 13.6L15.66 14.65L15.05 14.94C14.3 15.29 13.38 15.87 12.82 16.34L12.39 16.7L9.88 16.7L7.37 16.7L7.37 21.37L7.37 26.03L9.88 26.03L12.39 26.03L12.82 26.39C13.9 27.3 15.71 28.2 17.26 28.58C18.76 28.95 19.16 29 21.04 29C22.58 28.99 22.97 28.97 23.77 28.81C25.91 28.38 27.81 27.53 29.17 26.39L29.6 26.03L32.11 26.03L34.62 26.03L34.62 21.37L34.62 16.7L32.11 16.7L29.6 16.7L29.17 16.35C28.54 15.82 27.8 15.35 27.02 14.98L26.33 14.65L26.33 13.6L26.33 12.56L21 12.56L15.66 12.56L15.66 13.6ZM0.56 15.01C-0.05 15.41 -0.02 15.1 0 21.46C0.03 27.11 0.03 27.16 0.2 27.39C0.56 27.86 0.81 27.94 2.17 27.97C3.98 28.01 4.47 27.87 4.82 27.2C4.88 27.07 4.91 25.39 4.91 21.37C4.91 15.25 4.93 15.51 4.46 15.08C4.24 14.87 4.22 14.87 2.54 14.85C0.88 14.82 0.84 14.83 0.56 15.01ZM37.68 14.99C37.53 15.08 37.33 15.27 37.24 15.42C37.09 15.68 37.08 15.84 37.08 21.37L37.08 27.06L37.27 27.34C37.64 27.89 37.84 27.94 39.54 27.94C41.21 27.94 41.41 27.89 41.79 27.39C41.96 27.16 41.96 27.11 41.99 21.46C42.01 15.1 42.04 15.41 41.44 15.02C41.17 14.84 41.09 14.83 39.55 14.83C38.09 14.83 37.92 14.85 37.68 14.99Z" fill="url(#paint_linear_0_1085_0)" fill-opacity="1.000000" fill-rule="evenodd"/>
</svg>
